<?xml version="1.0" standalone="no"?>
<svg xmlns:xlink="http://www.w3.org/1999/xlink" xmlns="http://www.w3.org/2000/svg" preserveAspectRatio="xMinYMin meet" viewBox="0 0 1000 500" class="svg-content"><g transform="translate(50,15)"><g class="x-axis" fill="none" font-size="10" font-family="sans-serif" text-anchor="middle" clip-path="url(#clip)" transform="translate(0,445)"><path class="domain" stroke="currentColor" d="M50.5,6V0.5H920.5V6"/><g class="tick" opacity="1" transform="translate(50.5,0)"><line stroke="currentColor" y2="6"/><text fill="currentColor" y="9" dy="0.71em">1800</text></g><g class="tick" opacity="1" transform="translate(129.5820477413195,0)"><line stroke="currentColor" y2="6"/><text fill="currentColor" y="9" dy="0.71em">1820</text></g><g class="tick" opacity="1" transform="translate(208.67492270713814,0)"><line stroke="currentColor" y2="6"/><text fill="currentColor" y="9" dy="0.71em">1840</text></g><g class="tick" opacity="1" transform="translate(287.7677976729567,0)"><line stroke="currentColor" y2="6"/><text fill="currentColor" y="9" dy="0.71em">1860</text></g><g class="tick" opacity="1" transform="translate(366.8606726387754,0)"><line stroke="currentColor" y2="6"/><text fill="currentColor" y="9" dy="0.71em">1880</text></g><g class="tick" opacity="1" transform="translate(445.95357742958737,0)"><line stroke="currentColor" y2="6"/><text fill="currentColor" y="9" dy="0.71em">1900</text></g><g class="tick" opacity="1" transform="translate(525.0356251709069,0)"><line stroke="currentColor" y2="6"/><text fill="currentColor" y="9" dy="0.71em">1920</text></g><g class="tick" opacity="1" transform="translate(604.1285001367255,0)"><line stroke="currentColor" y2="6"/><text fill="currentColor" y="9" dy="0.71em">1940</text></g><g class="tick" opacity="1" transform="translate(683.2213751025442,0)"><line stroke="currentColor" y2="6"/><text fill="currentColor" y="9" dy="0.71em">1960</text></g><g class="tick" opacity="1" transform="translate(762.3142500683628,0)"><line stroke="currentColor" y2="6"/><text fill="currentColor" y="9" dy="0.71em">1980</text></g><g class="tick" opacity="1" transform="translate(841.4071250341814,0)"><line stroke="currentColor" y2="6"/><text fill="currentColor" y="9" dy="0.71em">2000</text></g><g class="tick" opacity="1" transform="translate(920.5,0)"><line stroke="currentColor" y2="6"/><text fill="currentColor" y="9" dy="0.71em">2020</text></g></g><g class="y-axis" transform="translate(50,0)" fill="none" font-size="10" font-family="sans-serif" text-anchor="end"><path class="domain" stroke="currentColor" d="M0.5,445.5V15.5"/><g class="tick" opacity="1" transform="translate(0,433.5)"><line stroke="currentColor" x2="-6"/><text fill="currentColor" x="-9" dy="0.32em">0</text></g><g class="tick" opacity="1" transform="translate(0,385.5)"><line stroke="currentColor" x2="-6"/><text fill="currentColor" x="-9" dy="0.32em">2</text></g><g class="tick" opacity="1" transform="translate(0,337.5)"><line stroke="currentColor" x2="-6"/><text fill="currentColor" x="-9" dy="0.32em">4</text></g><g class="tick" opacity="1" transform="translate(0,289.5)"><line stroke="currentColor" x2="-6"/><text fill="currentColor" x="-9" dy="0.32em">6</text></g><g class="tick" opacity="1" transform="translate(0,241.5)"><line stroke="currentColor" x2="-6"/><text fill="currentColor" x="-9" dy="0.32em">8</text></g><g class="tick" opacity="1" transform="translate(0,193.5)"><line stroke="currentColor" x2="-6"/><text fill="currentColor" x="-9" dy="0.32em">10</text></g><g class="tick" opacity="1" transform="translate(0,145.5)"><line stroke="currentColor" x2="-6"/><text fill="currentColor" x="-9" dy="0.32em">12</text></g><g class="tick" opacity="1" transform="translate(0,97.5)"><line stroke="currentColor" x2="-6"/><text fill="currentColor" x="-9" dy="0.32em">14</text></g><g class="tick" opacity="1" transform="translate(0,49.5)"><line stroke="currentColor" x2="-6"/><text fill="currentColor" x="-9" dy="0.32em">16</text></g><text fill="#000" transform="rotate(-90)" y="-4em" x="-6em" text-anchor="end">Yearly Number of Citations (millions)</text></g><path fill-opacity="0" clip-path="url(#clip)" class="path1" stroke="#0099C5" stroke-width="3" d="M50,433L53.95193694216616,433L57.90387388433231,433L61.85581082649848,433L65.80774776866464,433L69.77051193532988,433L73.72244887749603,433L77.6743858196622,433L81.62632276182836,433L85.5890869284936,433L89.54102387065976,433L97.44489775499208,433L105.35959886382348,433L109.31153580598965,433L113.2634727481558,433L117.22623691482104,433L121.1781738569872,433L125.13011079915336,433L129.0820477413195,433L133.04481190798475,433L136.99674885015094,433L140.9486857923171,433L144.90062273448325,433L148.8633869011485,433L152.81532384331464,433L156.76726078548083,433L160.71919772764696,433L164.68196189431222,433L168.63389883647835,433L172.58583577864457,433L176.53777272081072,433L180.50053688747596,433L184.4524738296421,433L188.40441077180827,433L192.3563477139744,433L196.31911188063967,433L200.27104882280582,433L204.22298576497198,433L208.17492270713814,433L212.13768687380337,433L216.08962381596953,433L220.04156075813574,433L223.99349770030187,433L227.9562618669671,433L231.90819880913327,433L235.86013575129942,433L239.81207269346558,433L243.77483686013085,433L247.72677380229698,433L251.67871074446316,433L255.6306476866293,433L259.5934118532945,433L263.5453487954607,433L267.49728573762684,433L271.449222679793,433L275.41198684645826,433L279.36392378862445,433L283.31586073079063,433L287.2677976729567,433L291.230561839622,433L295.1824987817881,433L299.1344357239543,433L303.0863726661205,433L307.04913683278573,433L311.0010737749519,433L314.95301071711805,433L318.9049476592842,433L322.86771182594947,433L326.8196487681156,433L330.7715857102817,433L334.72352265244797,433L338.68628681911315,433L342.63822376127933,433L346.5901607034455,433L350.54209764561165,433L354.50486181227694,433L358.456798754443,433L362.4087356966092,433L366.3606726387754,433L370.3234368054406,433L374.27537374760675,433L378.22731068977293,433L382.17927745693254,433L386.1420416235977,433L390.09397856576396,433L394.0459155079301,433L397.9978524500962,433L401.96061661676146,433L405.91255355892764,433L409.86449050109377,433L413.81642744325995,433L417.7791916099252,433L421.7311285520914,433L425.6830654942575,433L429.63500243642363,433L433.5977666030889,433L437.5497035452551,433L441.50164048742124,433L445.45357742958737,433L449.4055143717536,433L453.3574513139197,433L457.30938825608587,433L461.2613251982521,433L465.2240893649173,433L469.1760263070835,433L473.12796324924955,433L477.0799001914158,433L481.042664358081,433L484.99460130024715,433L488.94653824241334,433L492.8984751845795,433L496.86123935124476,433L500.81317629341083,433L504.7651132355771,433L508.7170501777432,433L512.6798143444086,433L516.6317512865745,433L520.5836882287407,433L524.5356251709069,433L528.4983893375722,433L532.4503262797384,433L536.4022632219044,433L540.3542001640707,433L544.3169643307359,432L548.2689012729021,432L552.2208382150682,432L556.1727751572344,432L560.1355393238996,432L564.0874762660658,432L568.039413208232,432L571.991350150398,432L575.9541143170634,432L579.9060512592295,432L583.8579882013958,431L587.8099251435618,431L591.7726893102271,431L595.7246262523933,431L599.6765631945593,431L603.6285001367255,431L607.5912643033907,430L611.5432012455569,431L615.494687053369,431L619.4466239955352,431L623.4093881622003,431L627.3617762387207,430L631.3137131808869,430L635.265650123053,429L639.2284142897182,428L643.1803512318844,427L647.1322881740506,420L651.0842251162168,427L655.0469892828819,425L658.9989262250481,425L662.9508631672143,424L666.9028001093805,423L670.8655642760457,422L674.8175012182119,420L678.769438160378,420L682.7213751025442,418L686.6841392692094,415L690.6360762113756,412L694.5880131535417,411L698.5399500957078,410L702.5027142623732,404L706.4546512045392,403L710.4065881467054,400L714.3585250888716,397L718.321289255537,393L722.2732261977029,391L726.2251631398692,387L730.1771000820354,384L734.1398642487006,377L738.0918011908668,377L742.0437381330328,372L745.9956750751991,362L749.9584392418643,361L753.9103761840305,360L757.8623131261966,355L761.8142500683628,348L765.777014235028,344L769.7289511771942,338L773.6808881193604,331L777.6328250615264,325L781.5955892281918,316L785.5475261703579,305L789.499463112524,295L793.4514000546902,273L797.4141642213555,266L801.3661011635216,245L805.3180381056878,238L809.2699750478539,224L813.2327392145191,214L817.1846761566853,202L821.1366130988515,164L825.0885500410177,151L829.0513142076828,128L833.003251149849,110L836.9551880920153,97L840.9071250341814,66L844.8698892008466,55L848.8218261430128,35L852.773763085179,24L856.7257000273452,16L860.6884641940103,15L864.6404011361765,18L868.5923380783427,30L872.5442750205088,42L876.507039187174,65L880.4589761293403,92L884.4109130715063,123L888.3628500136725,161L892.3256141803379,193L896.277551122504,237L900.2294880646701,281L904.1814250068362,327L908.1441891735016,367L912.0961261156676,404L916.0480630578338,428L920,433" stroke-dasharray="1533.7216796875 1533.7216796875" stroke-dashoffset="0"/><line x1="70" x2="100" y1="60" y2="60" stroke-width="3" style="stroke: rgb(0, 153, 197);"/><text class="legend" x="110" y="60" alignment-baseline="middle">US Paper Citations</text><path fill-opacity="0" clip-path="url(#clip)" class="path2" stroke="#ff0000" stroke-width="3" d="M50,433L53.95193694216616,433L57.90387388433231,433L61.85581082649848,433L65.80774776866464,433L69.77051193532988,433L73.72244887749603,433L77.6743858196622,433L81.62632276182836,433L85.5890869284936,433L89.54102387065976,433L97.44489775499208,433L105.35959886382348,433L109.31153580598965,433L113.2634727481558,433L117.22623691482104,433L121.1781738569872,433L125.13011079915336,433L129.0820477413195,433L133.04481190798475,433L136.99674885015094,433L140.9486857923171,433L144.90062273448325,433L148.8633869011485,433L152.81532384331464,433L156.76726078548083,433L160.71919772764696,433L164.68196189431222,433L168.63389883647835,433L172.58583577864457,433L176.53777272081072,433L180.50053688747596,433L184.4524738296421,433L188.40441077180827,433L192.3563477139744,433L196.31911188063967,433L200.27104882280582,433L204.22298576497198,433L208.17492270713814,433L212.13768687380337,433L216.08962381596953,433L220.04156075813574,433L223.99349770030187,433L227.9562618669671,433L231.90819880913327,433L235.86013575129942,433L239.81207269346558,433L243.77483686013085,433L247.72677380229698,433L251.67871074446316,433L255.6306476866293,433L259.5934118532945,433L263.5453487954607,433L267.49728573762684,433L271.449222679793,433L275.41198684645826,433L279.36392378862445,433L283.31586073079063,433L287.2677976729567,433L291.230561839622,433L295.1824987817881,433L299.1344357239543,433L303.0863726661205,433L307.04913683278573,433L311.0010737749519,433L314.95301071711805,433L318.9049476592842,433L322.86771182594947,433L326.8196487681156,433L330.7715857102817,433L334.72352265244797,433L338.68628681911315,433L342.63822376127933,433L346.5901607034455,433L350.54209764561165,433L354.50486181227694,433L358.456798754443,433L362.4087356966092,433L366.3606726387754,433L370.3234368054406,433L374.27537374760675,433L378.22731068977293,433L382.17927745693254,433L386.1420416235977,433L390.09397856576396,433L394.0459155079301,433L397.9978524500962,433L401.96061661676146,433L405.91255355892764,433L409.86449050109377,433L413.81642744325995,433L417.7791916099252,433L421.7311285520914,433L425.6830654942575,433L429.63500243642363,433L433.5977666030889,433L437.5497035452551,433L441.50164048742124,433L445.45357742958737,433L449.4055143717536,433L453.3574513139197,433L457.30938825608587,433L461.2613251982521,433L465.2240893649173,433L469.1760263070835,433L473.12796324924955,433L477.0799001914158,433L481.042664358081,433L484.99460130024715,433L488.94653824241334,433L492.8984751845795,433L496.86123935124476,433L500.81317629341083,433L504.7651132355771,433L508.7170501777432,433L512.6798143444086,433L516.6317512865745,433L520.5836882287407,433L524.5356251709069,433L528.4983893375722,433L532.4503262797384,433L536.4022632219044,433L540.3542001640707,433L544.3169643307359,433L548.2689012729021,433L552.2208382150682,433L556.1727751572344,433L560.1355393238996,433L564.0874762660658,433L568.039413208232,433L571.991350150398,433L575.9541143170634,433L579.9060512592295,433L583.8579882013958,433L587.8099251435618,433L591.7726893102271,433L595.7246262523933,433L599.6765631945593,433L603.6285001367255,433L607.5912643033907,433L611.5432012455569,433L615.494687053369,433L619.4466239955352,433L623.4093881622003,433L627.3617762387207,433L631.3137131808869,433L635.265650123053,433L639.2284142897182,433L643.1803512318844,433L647.1322881740506,433L651.0842251162168,433L655.0469892828819,433L658.9989262250481,433L662.9508631672143,433L666.9028001093805,433L670.8655642760457,433L674.8175012182119,433L678.769438160378,433L682.7213751025442,433L686.6841392692094,433L690.6360762113756,433L694.5880131535417,433L698.5399500957078,433L702.5027142623732,433L706.4546512045392,433L710.4065881467054,433L714.3585250888716,433L718.321289255537,433L722.2732261977029,433L726.2251631398692,433L730.1771000820354,433L734.1398642487006,433L738.0918011908668,433L742.0437381330328,433L745.9956750751991,433L749.9584392418643,433L753.9103761840305,433L757.8623131261966,433L761.8142500683628,433L765.777014235028,433L769.7289511771942,433L773.6808881193604,433L777.6328250615264,433L781.5955892281918,433L785.5475261703579,433L789.499463112524,433L793.4514000546902,433L797.4141642213555,432L801.3661011635216,432L805.3180381056878,432L809.2699750478539,432L813.2327392145191,432L817.1846761566853,432L821.1366130988515,432L825.0885500410177,431L829.0513142076828,430L833.003251149849,430L836.9551880920153,429L840.9071250341814,427L844.8698892008466,425L848.8218261430128,423L852.773763085179,419L856.7257000273452,414L860.6884641940103,409L864.6404011361765,402L868.5923380783427,396L872.5442750205088,391L876.507039187174,385L880.4589761293403,382L884.4109130715063,378L888.3628500136725,376L892.3256141803379,374L896.277551122504,374L900.2294880646701,378L904.1814250068362,388L908.1441891735016,399L912.0961261156676,414L916.0480630578338,430L920,433" stroke-dasharray="936.3392944335938 936.3392944335938" stroke-dashoffset="0"/><line x1="70" x2="100" y1="90" y2="90" stroke-width="3" style="stroke: rgb(255, 0, 0);"/><text class="legend" x="110" y="90" alignment-baseline="middle">PRC Paper Citations</text></g><defs><clipPath id="clip"><rect x="50" width="920" height="465"/></clipPath></defs><g class="focus" transform="translate(50,15)" style="display: none;"><line stroke="#666" stroke-width="1" y1="-450" y2="-20" transform="translate(920,465)"/><circle class="circle1" r="5" dy="5" stroke="black" fill="#fff" transform="translate(920,433)"/><circle class="circle2" r="5" dy="5" stroke="black" fill="#fff" transform="translate(920,433)"/><text class="year_display" text-anchor="middle" dy=".35em" transform="translate(920,480)">2020</text><text class="usa" x="260" y="65">695</text><text class="prc" x="260" y="95">14</text></g><rect fill="none" class="overlay" x="50" y="15" width="920" height="445"/></svg>